<mxfile host="Electron" modified="2024-07-18T12:02:04.368Z" agent="Mozilla/5.0 (Macintosh; Intel Mac OS X 10_15_7) AppleWebKit/537.36 (KHTML, like Gecko) draw.io/24.6.4 Chrome/124.0.6367.207 Electron/30.0.6 Safari/537.36" etag="Oc9XefU1W4QW21OYCkUs" version="24.6.4" type="device">
  <diagram id="In03jnOBnLg7mTdjoZ8h" name="Page-1">
    <mxGraphModel dx="1242" dy="878" grid="1" gridSize="10" guides="1" tooltips="1" connect="1" arrows="1" fold="1" page="0" pageScale="1" pageWidth="827" pageHeight="1169" math="0" shadow="1">
      <root>
        <mxCell id="0" />
        <mxCell id="1" parent="0" />
        <mxCell id="SfIHV6pgzLbOrOoAITgy-2" style="edgeStyle=orthogonalEdgeStyle;rounded=0;orthogonalLoop=1;jettySize=auto;html=1;entryX=0.5;entryY=0;entryDx=0;entryDy=0;" edge="1" parent="1" source="g2cGf5yEsODB59__Dj8U-2" target="SfIHV6pgzLbOrOoAITgy-1">
          <mxGeometry relative="1" as="geometry" />
        </mxCell>
        <mxCell id="g2cGf5yEsODB59__Dj8U-2" value="BeforeCloseEvent" style="whiteSpace=wrap;html=1;rounded=1;" parent="1" vertex="1">
          <mxGeometry x="240" y="950" width="200" height="40" as="geometry" />
        </mxCell>
        <mxCell id="g2cGf5yEsODB59__Dj8U-5" value="AfterCloseEvent" style="whiteSpace=wrap;html=1;rounded=1;" parent="1" vertex="1">
          <mxGeometry x="240" y="1140" width="200" height="40" as="geometry" />
        </mxCell>
        <mxCell id="g2cGf5yEsODB59__Dj8U-6" value="" style="edgeStyle=orthogonalEdgeStyle;rounded=0;orthogonalLoop=1;jettySize=auto;html=1;" parent="1" source="g2cGf5yEsODB59__Dj8U-7" target="g2cGf5yEsODB59__Dj8U-21" edge="1">
          <mxGeometry relative="1" as="geometry" />
        </mxCell>
        <mxCell id="g2cGf5yEsODB59__Dj8U-7" value="saveChanges" style="shape=process;whiteSpace=wrap;html=1;backgroundOutline=1;rounded=1;fillColor=#f5f5f5;fontColor=#333333;strokeColor=#666666;" parent="1" vertex="1">
          <mxGeometry x="240" y="180" width="200" height="40" as="geometry" />
        </mxCell>
        <mxCell id="g2cGf5yEsODB59__Dj8U-8" value="" style="edgeStyle=orthogonalEdgeStyle;rounded=0;orthogonalLoop=1;jettySize=auto;html=1;exitX=0.5;exitY=1;exitDx=0;exitDy=0;entryX=0.5;entryY=0;entryDx=0;entryDy=0;" parent="1" source="g2cGf5yEsODB59__Dj8U-12" target="g2cGf5yEsODB59__Dj8U-23" edge="1">
          <mxGeometry relative="1" as="geometry">
            <Array as="points">
              <mxPoint x="340" y="510" />
              <mxPoint x="340" y="510" />
            </Array>
            <mxPoint x="100" y="420" as="targetPoint" />
          </mxGeometry>
        </mxCell>
        <mxCell id="g2cGf5yEsODB59__Dj8U-9" value="No" style="edgeLabel;html=1;align=center;verticalAlign=middle;resizable=0;points=[];" parent="g2cGf5yEsODB59__Dj8U-8" vertex="1" connectable="0">
          <mxGeometry x="-0.4375" y="-2" relative="1" as="geometry">
            <mxPoint x="2" y="5" as="offset" />
          </mxGeometry>
        </mxCell>
        <mxCell id="g2cGf5yEsODB59__Dj8U-10" value="" style="edgeStyle=orthogonalEdgeStyle;rounded=0;orthogonalLoop=1;jettySize=auto;html=1;exitX=1;exitY=0.5;exitDx=0;exitDy=0;" parent="1" source="g2cGf5yEsODB59__Dj8U-12" target="g2cGf5yEsODB59__Dj8U-15" edge="1">
          <mxGeometry relative="1" as="geometry">
            <Array as="points">
              <mxPoint x="560" y="450" />
            </Array>
          </mxGeometry>
        </mxCell>
        <mxCell id="g2cGf5yEsODB59__Dj8U-11" value="Yes" style="edgeLabel;html=1;align=center;verticalAlign=middle;resizable=0;points=[];rotation=0;" parent="g2cGf5yEsODB59__Dj8U-10" vertex="1" connectable="0">
          <mxGeometry x="-0.2125" y="2" relative="1" as="geometry">
            <mxPoint x="1" y="2" as="offset" />
          </mxGeometry>
        </mxCell>
        <mxCell id="g2cGf5yEsODB59__Dj8U-12" value="Has validation errors?" style="rhombus;whiteSpace=wrap;html=1;rounded=1;" parent="1" vertex="1">
          <mxGeometry x="220" y="420" width="240" height="60" as="geometry" />
        </mxCell>
        <mxCell id="g2cGf5yEsODB59__Dj8U-13" value="" style="edgeStyle=orthogonalEdgeStyle;rounded=0;orthogonalLoop=1;jettySize=auto;html=1;" parent="1" source="g2cGf5yEsODB59__Dj8U-14" target="g2cGf5yEsODB59__Dj8U-25" edge="1">
          <mxGeometry relative="1" as="geometry" />
        </mxCell>
        <mxCell id="g2cGf5yEsODB59__Dj8U-14" value="Saving process" style="shape=process;whiteSpace=wrap;html=1;backgroundOutline=1;rounded=1;fillColor=#f5f5f5;fontColor=#333333;strokeColor=#666666;" parent="1" vertex="1">
          <mxGeometry x="240" y="710" width="200" height="40" as="geometry" />
        </mxCell>
        <mxCell id="g2cGf5yEsODB59__Dj8U-15" value="Show validation errors" style="shape=process;whiteSpace=wrap;html=1;backgroundOutline=1;rounded=1;fillColor=#f5f5f5;fontColor=#333333;strokeColor=#666666;" parent="1" vertex="1">
          <mxGeometry x="560" y="430" width="200" height="40" as="geometry" />
        </mxCell>
        <mxCell id="g2cGf5yEsODB59__Dj8U-18" style="edgeStyle=orthogonalEdgeStyle;rounded=0;orthogonalLoop=1;jettySize=auto;html=1;entryX=0.5;entryY=0;entryDx=0;entryDy=0;" parent="1" source="g2cGf5yEsODB59__Dj8U-19" target="g2cGf5yEsODB59__Dj8U-12" edge="1">
          <mxGeometry relative="1" as="geometry" />
        </mxCell>
        <mxCell id="g2cGf5yEsODB59__Dj8U-19" value="ValidationEvent" style="rounded=1;whiteSpace=wrap;html=1;" parent="1" vertex="1">
          <mxGeometry x="240" y="340" width="200" height="40" as="geometry" />
        </mxCell>
        <mxCell id="g2cGf5yEsODB59__Dj8U-20" style="edgeStyle=orthogonalEdgeStyle;rounded=0;orthogonalLoop=1;jettySize=auto;html=1;entryX=0.5;entryY=0;entryDx=0;entryDy=0;" parent="1" source="g2cGf5yEsODB59__Dj8U-21" target="g2cGf5yEsODB59__Dj8U-19" edge="1">
          <mxGeometry relative="1" as="geometry" />
        </mxCell>
        <mxCell id="g2cGf5yEsODB59__Dj8U-21" value="validateView" style="shape=process;whiteSpace=wrap;html=1;backgroundOutline=1;rounded=1;fillColor=#f5f5f5;fontColor=#333333;strokeColor=#666666;" parent="1" vertex="1">
          <mxGeometry x="240" y="260" width="200" height="40" as="geometry" />
        </mxCell>
        <mxCell id="pbp6DFzdqXZe_fUCQhgF-8" value="" style="edgeStyle=orthogonalEdgeStyle;rounded=0;orthogonalLoop=1;jettySize=auto;html=1;" parent="1" source="g2cGf5yEsODB59__Dj8U-23" target="pbp6DFzdqXZe_fUCQhgF-7" edge="1">
          <mxGeometry relative="1" as="geometry" />
        </mxCell>
        <mxCell id="g2cGf5yEsODB59__Dj8U-23" value="BeforeSaveEvent" style="rounded=1;whiteSpace=wrap;html=1;" parent="1" vertex="1">
          <mxGeometry x="240" y="520" width="200" height="40" as="geometry" />
        </mxCell>
        <mxCell id="pbp6DFzdqXZe_fUCQhgF-5" value="" style="edgeStyle=orthogonalEdgeStyle;rounded=0;orthogonalLoop=1;jettySize=auto;html=1;" parent="1" source="g2cGf5yEsODB59__Dj8U-25" target="pbp6DFzdqXZe_fUCQhgF-4" edge="1">
          <mxGeometry relative="1" as="geometry" />
        </mxCell>
        <mxCell id="g2cGf5yEsODB59__Dj8U-25" value="AfterSaveEvent" style="rounded=1;whiteSpace=wrap;html=1;" parent="1" vertex="1">
          <mxGeometry x="240" y="790" width="200" height="40" as="geometry" />
        </mxCell>
        <mxCell id="g2cGf5yEsODB59__Dj8U-26" style="edgeStyle=orthogonalEdgeStyle;rounded=0;orthogonalLoop=1;jettySize=auto;html=1;entryX=0.5;entryY=0;entryDx=0;entryDy=0;" parent="1" target="g2cGf5yEsODB59__Dj8U-2" edge="1">
          <mxGeometry relative="1" as="geometry">
            <mxPoint x="340" y="910" as="sourcePoint" />
          </mxGeometry>
        </mxCell>
        <mxCell id="pbp6DFzdqXZe_fUCQhgF-2" style="edgeStyle=orthogonalEdgeStyle;rounded=0;orthogonalLoop=1;jettySize=auto;html=1;entryX=0.5;entryY=0;entryDx=0;entryDy=0;" parent="1" source="pbp6DFzdqXZe_fUCQhgF-1" target="g2cGf5yEsODB59__Dj8U-7" edge="1">
          <mxGeometry relative="1" as="geometry" />
        </mxCell>
        <mxCell id="pbp6DFzdqXZe_fUCQhgF-3" value="&lt;span style=&quot;font-size: 12px; text-wrap: wrap; background-color: rgb(251, 251, 251);&quot;&gt;closeWithSave()&lt;/span&gt;" style="edgeLabel;html=1;align=center;verticalAlign=middle;resizable=0;points=[];" parent="pbp6DFzdqXZe_fUCQhgF-2" vertex="1" connectable="0">
          <mxGeometry x="-0.0299" y="1" relative="1" as="geometry">
            <mxPoint x="-1" y="-4" as="offset" />
          </mxGeometry>
        </mxCell>
        <mxCell id="pbp6DFzdqXZe_fUCQhgF-1" value="" style="shape=umlActor;verticalLabelPosition=bottom;verticalAlign=top;html=1;outlineConnect=0;" parent="1" vertex="1">
          <mxGeometry x="325" y="50" width="30" height="60" as="geometry" />
        </mxCell>
        <mxCell id="pbp6DFzdqXZe_fUCQhgF-4" value="Close(SAVE)" style="shape=process;whiteSpace=wrap;html=1;backgroundOutline=1;rounded=1;fillColor=#f5f5f5;fontColor=#333333;strokeColor=#666666;" parent="1" vertex="1">
          <mxGeometry x="240" y="870" width="200" height="40" as="geometry" />
        </mxCell>
        <mxCell id="pbp6DFzdqXZe_fUCQhgF-9" style="edgeStyle=orthogonalEdgeStyle;rounded=0;orthogonalLoop=1;jettySize=auto;html=1;entryX=0.5;entryY=0;entryDx=0;entryDy=0;" parent="1" source="pbp6DFzdqXZe_fUCQhgF-7" target="g2cGf5yEsODB59__Dj8U-14" edge="1">
          <mxGeometry relative="1" as="geometry" />
        </mxCell>
        <mxCell id="pbp6DFzdqXZe_fUCQhgF-10" value="No" style="edgeLabel;html=1;align=center;verticalAlign=middle;resizable=0;points=[];" parent="pbp6DFzdqXZe_fUCQhgF-9" vertex="1" connectable="0">
          <mxGeometry x="-0.1" y="-1" relative="1" as="geometry">
            <mxPoint as="offset" />
          </mxGeometry>
        </mxCell>
        <mxCell id="pbp6DFzdqXZe_fUCQhgF-19" value="" style="edgeStyle=orthogonalEdgeStyle;rounded=0;orthogonalLoop=1;jettySize=auto;html=1;" parent="1" source="pbp6DFzdqXZe_fUCQhgF-7" target="pbp6DFzdqXZe_fUCQhgF-18" edge="1">
          <mxGeometry relative="1" as="geometry" />
        </mxCell>
        <mxCell id="pbp6DFzdqXZe_fUCQhgF-20" value="Yes" style="edgeLabel;html=1;align=center;verticalAlign=middle;resizable=0;points=[];" parent="pbp6DFzdqXZe_fUCQhgF-19" vertex="1" connectable="0">
          <mxGeometry x="-0.32" y="1" relative="1" as="geometry">
            <mxPoint x="6" y="1" as="offset" />
          </mxGeometry>
        </mxCell>
        <mxCell id="pbp6DFzdqXZe_fUCQhgF-7" value="&lt;div style=&quot;background-color:#ffffff;color:#080808&quot;&gt;&lt;pre style=&quot;&quot;&gt;&lt;font style=&quot;font-size: 12px;&quot; face=&quot;Helvetica&quot;&gt;Save prevented?&lt;/font&gt;&lt;/pre&gt;&lt;/div&gt;" style="rhombus;whiteSpace=wrap;html=1;rounded=1;" parent="1" vertex="1">
          <mxGeometry x="220" y="600" width="240" height="60" as="geometry" />
        </mxCell>
        <mxCell id="pbp6DFzdqXZe_fUCQhgF-18" value="Data saving interrupted" style="ellipse;whiteSpace=wrap;html=1;rounded=1;" parent="1" vertex="1">
          <mxGeometry x="560" y="590" width="80" height="80" as="geometry" />
        </mxCell>
        <mxCell id="SfIHV6pgzLbOrOoAITgy-3" value="No" style="edgeStyle=orthogonalEdgeStyle;rounded=0;orthogonalLoop=1;jettySize=auto;html=1;entryX=0.5;entryY=0;entryDx=0;entryDy=0;" edge="1" parent="1" source="SfIHV6pgzLbOrOoAITgy-1" target="g2cGf5yEsODB59__Dj8U-5">
          <mxGeometry relative="1" as="geometry" />
        </mxCell>
        <mxCell id="SfIHV6pgzLbOrOoAITgy-5" style="edgeStyle=orthogonalEdgeStyle;rounded=0;orthogonalLoop=1;jettySize=auto;html=1;entryX=0;entryY=0.5;entryDx=0;entryDy=0;" edge="1" parent="1" source="SfIHV6pgzLbOrOoAITgy-1" target="SfIHV6pgzLbOrOoAITgy-4">
          <mxGeometry relative="1" as="geometry" />
        </mxCell>
        <mxCell id="SfIHV6pgzLbOrOoAITgy-6" value="Yes" style="edgeLabel;html=1;align=center;verticalAlign=middle;resizable=0;points=[];" vertex="1" connectable="0" parent="SfIHV6pgzLbOrOoAITgy-5">
          <mxGeometry x="-0.02" y="-1" relative="1" as="geometry">
            <mxPoint x="-9" y="-1" as="offset" />
          </mxGeometry>
        </mxCell>
        <mxCell id="SfIHV6pgzLbOrOoAITgy-1" value="&lt;div style=&quot;background-color:#ffffff;color:#080808&quot;&gt;&lt;pre style=&quot;&quot;&gt;&lt;font style=&quot;font-size: 12px;&quot; face=&quot;Helvetica&quot;&gt;Close prevented?&lt;/font&gt;&lt;/pre&gt;&lt;/div&gt;" style="rhombus;whiteSpace=wrap;html=1;rounded=1;" vertex="1" parent="1">
          <mxGeometry x="220" y="1030" width="240" height="60" as="geometry" />
        </mxCell>
        <mxCell id="SfIHV6pgzLbOrOoAITgy-4" value="View closing interrupted" style="ellipse;whiteSpace=wrap;html=1;rounded=1;" vertex="1" parent="1">
          <mxGeometry x="560" y="1020" width="80" height="80" as="geometry" />
        </mxCell>
      </root>
    </mxGraphModel>
  </diagram>
</mxfile>
